<?xml version="1.0" encoding="UTF-8" standalone="no"?>
<svg
   width="158.75182mm"
   height="21.956291mm"
   viewBox="0 0 158.75182 21.956291"
   version="1.1"
   id="svg878"
   xmlns:xlink="http://www.w3.org/1999/xlink"
   xmlns="http://www.w3.org/2000/svg"
   xmlns:svg="http://www.w3.org/2000/svg"
   xmlns:rdf="http://www.w3.org/1999/02/22-rdf-syntax-ns#"
   xmlns:cc="http://creativecommons.org/ns#"
   xmlns:dc="http://purl.org/dc/elements/1.1/">
  <defs
     id="defs872">
    <linearGradient
       id="linearGradient1491">
      <stop
         style="stop-color:#b6b6b6;stop-opacity:1;"
         offset="0"
         id="stop3142" />
      <stop
         style="stop-color:#dcdcdc;stop-opacity:1;"
         offset="0.3261905"
         id="stop3304" />
      <stop
         style="stop-color:#ffffff;stop-opacity:1;"
         offset="1"
         id="stop3144" />
    </linearGradient>
    <linearGradient
       id="linearGradient1491-1">
      <stop
         style="stop-color:#ffffff;stop-opacity:1;"
         offset="0"
         id="stop1487" />
      <stop
         style="stop-color:#ffffff;stop-opacity:1;"
         offset="1"
         id="stop1489" />
    </linearGradient>
    <linearGradient
       xlink:href="#linearGradient1491"
       id="linearGradient1493"
       x1="110.0237"
       y1="59.862171"
       x2="110.0237"
       y2="46.425877"
       gradientUnits="userSpaceOnUse" />
    <linearGradient
       xlink:href="#linearGradient1491"
       id="linearGradient4245"
       x1="268.62189"
       y1="321.80334"
       x2="268.62189"
       y2="223.18089"
       gradientUnits="userSpaceOnUse"
       gradientTransform="matrix(0.17347848,0,0,0.17347848,-34.782304,15.964432)" />
  </defs>
  <metadata
     id="metadata875">
    <rdf:RDF>
      <cc:Work
         rdf:about="">
        <dc:format>image/svg+xml</dc:format>
        <dc:type
           rdf:resource="http://purl.org/dc/dcmitype/StillImage" />
      </cc:Work>
    </rdf:RDF>
  </metadata>
  <g
     transform="translate(-0.73645224,-50.285116)"
     id="layer1">
    <g
       aria-label="ALICORN"
       transform="scale(0.82866681,1.2067576)"
       id="text415"
       style="font-size:12.7715px;line-height:1.25;font-family:Arial;-inkscape-font-specification:Arial;letter-spacing:0px;word-spacing:0px;fill:url(#linearGradient1493);stroke-width:0.319288">
      <path
         d="M 46.430808,42.053752 58.083172,59.57304 h -5.30817 l -6.309272,-9.289297 -6.402397,9.277656 -5.296529,0.01164 z"
         style="font-size:23.8402px;font-family:'AIRBORNE GP';-inkscape-font-specification:'AIRBORNE GP, Normal'"
         id="path323" />
      <path
         d="m 62.820946,42.228363 h 4.854181 v 13.677849 l 9.114686,-0.08148 V 59.57304 H 62.820946 Z"
         style="font-size:23.8402px;font-family:'AIRBORNE GP';-inkscape-font-specification:'AIRBORNE GP, Normal'"
         id="path325" />
      <path
         d="m 84.577455,42.379692 h 4.842541 v 17.344677 h -4.842541 z"
         style="font-size:23.8402px;font-family:'AIRBORNE GP';-inkscape-font-specification:'AIRBORNE GP, Normal'"
         id="path327" />
      <path
         d="m 115.05287,55.766524 0.0233,3.771594 -7.776,-0.01164 q -4.30707,0 -7.391862,-2.549318 -2.991666,-2.479474 -2.991666,-5.971691 v -0.419066 q 0,-3.399091 2.991666,-5.890206 2.875262,-2.363067 7.415142,-2.549318 h 0.0116 v 0.01164 h 7.7178 l 0.0233,3.853079 -7.7178,0.03492 q -2.70065,0.01164 -4.07425,1.571498 -1.36197,1.548216 -1.36197,3.329246 0,1.781031 1.36197,3.352529 1.36196,1.571497 3.99277,1.466731 z"
         style="font-size:23.8402px;font-family:'AIRBORNE GP';-inkscape-font-specification:'AIRBORNE GP, Normal'"
         id="path329" />
      <path
         d="m 136.54164,47.280437 q -1.79267,-1.478372 -4.31871,-1.478372 -2.51439,0.01164 -4.30706,1.501653 -1.78103,1.490013 -1.78103,3.562061 0,2.08369 1.78103,3.550421 1.79267,1.466731 4.30706,1.466731 2.52604,-0.01164 4.31871,-1.490013 1.80431,-1.490012 1.80431,-3.562061 0,-2.083689 -1.80431,-3.55042 z m 3.46894,9.917896 q -3.2012,2.665725 -7.70616,2.665725 -4.50496,0 -7.72944,-2.665725 -3.21284,-2.677367 -3.21284,-6.414039 0,-3.771594 3.21284,-6.437319 3.22448,-2.677367 7.72944,-2.677367 4.50496,0 7.70616,2.677367 3.21284,2.665725 3.21284,6.437319 0,3.736672 -3.21284,6.414039 z"
         style="font-size:23.8402px;font-family:'AIRBORNE GP';-inkscape-font-specification:'AIRBORNE GP, Normal'"
         id="path331" />
      <path
         d="m 153.70007,59.491555 -4.86582,-0.04656 0.0466,-17.437803 11.31479,-0.02328 q 2.49111,0.104766 3.87636,0.873054 1.39688,0.756647 2.18845,2.211737 0.79157,1.455091 0.43071,3.340888 -0.36086,1.874156 -3.21284,3.014947 l 5.30817,8.05538 -5.15684,-0.02328 -6.22779,-9.382423 2.96839,-0.03492 q 1.52493,-0.465629 1.55985,-2.304863 0.0349,-1.850875 -2.47947,-1.944001 l -5.76216,0.03492 z"
         style="font-size:23.8402px;font-family:'AIRBORNE GP';-inkscape-font-specification:'AIRBORNE GP, Normal'"
         id="path333" />
      <path
         d="m 178.6345,50.749372 -0.0349,8.823668 H 173.7454 V 42.228363 l 13.81754,8.835309 v -8.963357 l 4.90074,0.08149 v 17.344677 z"
         style="font-size:23.8402px;font-family:'AIRBORNE GP';-inkscape-font-specification:'AIRBORNE GP, Normal'"
         id="path335" />
    </g>
    <path
       id="path1542"
       style="fill:url(#linearGradient4245);fill-opacity:1;stroke-width:0.867391"
       d="m 11.358873,50.550221 a 10.622459,10.622459 0 0 0 -6.5541286,2.26315 8.8063842,8.8063842 0 0 1 5.2626656,-1.745527 8.8063842,8.8063842 0 0 1 8.806343,8.806433 8.8063842,8.8063842 0 0 1 -1.318536,4.623122 L 3.8440815,53.664753 14.692414,67.360917 A 8.8063842,8.8063842 0 0 1 10.06741,68.680619 8.8063842,8.8063842 0 0 1 1.2609779,59.874277 8.8063842,8.8063842 0 0 1 3.0345652,54.574137 10.622459,10.622459 0 0 0 0.73645224,61.17273 10.622459,10.622459 0 0 0 11.358873,71.795152 a 10.622459,10.622459 0 0 0 0.01031,0 10.622459,10.622459 0 0 0 10.6122,-10.622422 10.622459,10.622459 0 0 0 -10.62251,-10.622509 z" />
  </g>
</svg>
