<?xml version="1.0" encoding="UTF-8"?>
<svg version="1.1" viewBox="0 0 1739.3 367.19" xmlns="http://www.w3.org/2000/svg" xmlns:xlink="http://www.w3.org/1999/xlink">
 <defs>
  <radialGradient id="a" cx="297.73" cy="325.9" r="203.29" gradientTransform="matrix(2.0223 .13995 -.21017 2.9706 -219.87 -645.03)" gradientUnits="userSpaceOnUse">
   <stop stop-color="#00e497" offset="0"/>
   <stop stop-color="#005d8c" offset="1"/>
  </radialGradient>
  <linearGradient id="b" x1="1134.1" x2="1134.1" y1="311.49" y2="71.976" gradientUnits="userSpaceOnUse">
   <stop stop-color="#dbdbdb" offset="0"/>
   <stop stop-color="#f8f8f8" offset="1"/>
  </linearGradient>
 </defs>
 <g transform="translate(-122.25 -80.891)">
  <path transform="matrix(.89317 0 0 .90311 166.45 120.79)" d="m357.09 159.11c0 112.28-91.017 203.29-203.29 203.29-112.28 0-203.29-91.017-203.29-203.29 0-112.28 91.017-203.29 203.29-203.29 112.28 0 203.29 91.017 203.29 203.29z" color="#000000" fill="url(#a)"/>
  <path d="m203.22 217.47c62.935 162.29 258.25 138.43 258.25 138.43-47.143 13.571-93.821 5.2197-93.821 5.2197-102.5 25.114-201.73-51.464-225.85-121.63 0.42777 0.75066 9.4168 11.913 39.261 10.946-32.071 0.3426-43.634-22.242-44.468-34.457-2.1299-31.199 12.165-58.283 52.107-70.71 96.546-26.512 95.411 187.23 188.41 198.64 0 0-102.93 2.2926-173.89-126.45z" fill="#fff"/>
 </g>
 <g transform="translate(.0029833 5.9994)" fill="url(#b)" aria-label="feather">
  <path d="m515.17 172.18v139.48h-35.208v-139.48h-15.573v-35.039h15.573v-31.315q1.1849-21.667 16.589-37.24 15.911-14.896 36.901-14.896 10.495 0 31.823 7.2787l-11.68 33.177q-14.896-6.263-18.789-6.263-7.1094 0-13.711 5.9245-5.586 5.5859-5.9245 13.372v29.961h31.315v35.039z"/>
  <path d="m650.01 272.05q8.8021 7.7865 31.992 7.7865 25.052 0 42.826-17.604 2.2005-2.3698 8.9714-10.495l35.039 12.526q-12.865 17.773-18.62 23.529-28.268 28.268-68.216 28.268-39.779 0-68.047-28.268-28.268-28.268-28.268-68.216 0-39.948 28.268-68.216 28.268-28.268 68.047-28.268 34.193 0 59.922 20.651 4.2318 3.5547 8.2943 7.6172 1.6927 1.6927 9.6484 10.664l-17.604 17.773zm58.568-108.33q-5.9245-4.5703-26.576-4.5703-24.883 0-42.656 17.773-17.604 17.604-17.604 42.656 0 20.482 4.5703 26.576z"/>
  <path d="m975.8 232.61v-25.729q-3.0469-16.419-16.25-29.792-17.773-17.604-42.656-17.604-25.052 0-42.826 17.604-17.604 17.604-17.604 42.656 0 24.883 17.604 42.656 17.773 17.604 42.826 17.604 24.883 0 42.656-17.604 13.203-13.372 16.25-29.792zm0-83.112v-12.188h35.208v174.35h-35.208v-21.836q-25.391 26.237-58.906 26.237-39.948 0-68.216-28.099-28.099-28.268-28.099-68.216 0-39.948 28.099-68.047 28.268-28.268 68.216-28.268 33.516 0 58.906 26.068z"/>
  <path d="m1099 137.31v-65.339h35.039v65.339h31.315v35.039h-31.315v139.14h-35.039v-139.14h-31.315v-35.039z"/>
  <path d="m1221.8 40.661h35.208v115.44q14.727-28.268 42.656-28.268t44.518 20.143q16.758 19.974 17.266 50.273v113.24h-35.039v-111.89q0-15.065-8.6329-25.729-8.4635-10.833-26.914-10.833-21.836 0-33.854 23.359v125.09h-35.208z"/>
  <path d="m1481.2 272.05q8.8021 7.7865 31.992 7.7865 25.052 0 42.826-17.604 2.2005-2.3698 8.9714-10.495l35.039 12.526q-12.865 17.773-18.62 23.529-28.268 28.268-68.216 28.268-39.779 0-68.047-28.268-28.268-28.268-28.268-68.216 0-39.948 28.268-68.216 28.268-28.268 68.047-28.268 34.193 0 59.922 20.651 4.2317 3.5547 8.2942 7.6172 1.6928 1.6927 9.6485 10.664l-17.604 17.773zm58.568-108.33q-5.9245-4.5703-26.576-4.5703-24.883 0-42.656 17.773-17.604 17.604-17.604 42.656 0 20.482 4.5703 26.576z"/>
  <path d="m1691 160.84q19.635-26.576 48.242-27.93v36.393q-19.128 1.0156-30.469 12.357-17.096 16.927-17.773 40.286v89.544h-35.039v-174.18h35.039z"/>
 </g>
</svg>
